<svg width="134" height="30" viewBox="0 0 134 30" fill="none" xmlns="http://www.w3.org/2000/svg">
<g clip-path="url(#clip0_220_293)">
<path d="M29.0366 0.5L0.0366211 15L8.03662 19L36.5366 4.31579L29.0366 0.5Z" fill="#E71919"/>
<path d="M39.847 6L11.0366 20.5L18.5366 24.25L46.7263 9.5L39.847 6Z" fill="#E71919"/>
<path d="M29.0366 29.5L57.5366 15L50.0366 11.1842L21.0366 25.5L29.0366 29.5Z" fill="#E71919"/>
<path d="M84.6275 12.4543H79.0196C78.9798 11.9903 78.8737 11.5694 78.7014 11.1915C78.5357 10.8137 78.3037 10.4889 78.0054 10.2171C77.7137 9.9387 77.3591 9.72658 76.9415 9.58074C76.5238 9.42828 76.0499 9.35205 75.5196 9.35205C74.5915 9.35205 73.806 9.57743 73.163 10.0282C72.5267 10.4789 72.0428 11.1253 71.7113 11.9671C71.3865 12.809 71.2241 13.8199 71.2241 14.9998C71.2241 16.246 71.3898 17.29 71.7213 18.1319C72.0593 18.9671 72.5466 19.5968 73.1829 20.0211C73.8193 20.4387 74.5849 20.6475 75.4798 20.6475C75.9902 20.6475 76.4476 20.5845 76.852 20.4586C77.2563 20.326 77.6076 20.1371 77.9059 19.8918C78.2042 19.6466 78.4462 19.3516 78.6318 19.0069C78.824 18.6556 78.9533 18.2611 79.0196 17.8236L84.6275 17.8634C84.5612 18.7252 84.3193 19.6035 83.9017 20.4984C83.4841 21.3866 82.8908 22.2086 82.1218 22.9643C81.3595 23.7133 80.4149 24.3165 79.288 24.7739C78.1611 25.2313 76.852 25.46 75.3605 25.46C73.4912 25.46 71.8141 25.059 70.3292 24.2569C68.851 23.4548 67.681 22.2749 66.8193 20.7171C65.9642 19.1593 65.5366 17.2536 65.5366 14.9998C65.5366 12.7327 65.9741 10.8236 66.8491 9.27251C67.7241 7.71474 68.904 6.53813 70.3889 5.74268C71.8737 4.94059 73.5309 4.53955 75.3605 4.53955C76.6465 4.53955 77.8297 4.71521 78.9102 5.06654C79.9907 5.41787 80.9386 5.9316 81.754 6.60773C82.5693 7.27724 83.2255 8.10252 83.7227 9.08358C84.2199 10.0646 84.5215 11.1882 84.6275 12.4543Z" fill="black"/>
<path d="M92.6641 4.81796V25.1816H87.1357V4.81796H92.6641Z" fill="black"/>
<path d="M106.261 11.1816C106.208 10.5187 105.96 10.0017 105.516 9.63046C105.078 9.25925 104.412 9.07364 103.517 9.07364C102.947 9.07364 102.48 9.14324 102.115 9.28245C101.757 9.41502 101.492 9.59732 101.32 9.82932C101.147 10.0613 101.058 10.3265 101.051 10.6248C101.038 10.87 101.081 11.0921 101.18 11.291C101.287 11.4832 101.452 11.6589 101.678 11.818C101.903 11.9704 102.191 12.1096 102.543 12.2356C102.894 12.3615 103.312 12.4742 103.795 12.5736L105.466 12.9316C106.593 13.1702 107.557 13.4851 108.359 13.8762C109.162 14.2673 109.818 14.728 110.328 15.2583C110.839 15.782 111.213 16.3719 111.452 17.0282C111.697 17.6844 111.823 18.4003 111.83 19.1759C111.823 20.5149 111.488 21.6485 110.825 22.5765C110.162 23.5045 109.215 24.2105 107.982 24.6944C106.755 25.1783 105.28 25.4202 103.557 25.4202C101.787 25.4202 100.242 25.1584 98.9233 24.6347C97.6108 24.111 96.59 23.3056 95.8608 22.2185C95.1383 21.1248 94.7737 19.7261 94.7671 18.0225H100.017C100.05 18.6456 100.206 19.1693 100.484 19.5935C100.763 20.0178 101.154 20.3393 101.658 20.558C102.168 20.7768 102.775 20.8861 103.477 20.8861C104.067 20.8861 104.561 20.8132 104.959 20.6674C105.357 20.5216 105.658 20.3194 105.864 20.0609C106.069 19.8023 106.175 19.5074 106.182 19.1759C106.175 18.8644 106.072 18.5926 105.874 18.3606C105.681 18.1219 105.363 17.9098 104.919 17.7242C104.475 17.532 103.875 17.353 103.119 17.1873L101.091 16.7498C99.2879 16.3587 97.8661 15.7057 96.8253 14.791C95.7912 13.8696 95.2775 12.6134 95.2841 11.0225C95.2775 9.72989 95.6222 8.59968 96.3182 7.63188C97.0209 6.65745 97.992 5.89845 99.2316 5.35489C100.478 4.81133 101.906 4.53955 103.517 4.53955C105.161 4.53955 106.583 4.81465 107.783 5.36483C108.983 5.91502 109.907 6.69059 110.557 7.69154C111.213 8.68586 111.545 9.84921 111.551 11.1816H106.261Z" fill="black"/>
<path d="M118.429 25.1816H112.463L119.185 4.81796H126.742L133.463 25.1816H127.498L123.043 10.4259H122.884L118.429 25.1816ZM117.316 17.1475H128.532V21.2839H117.316V17.1475Z" fill="black"/>
</g>
<defs>
<clipPath id="clip0_220_293">
<rect width="134" height="30" fill="white"/>
</clipPath>
</defs>
</svg>
