<svg width="33" height="31" viewBox="0 0 33 31" fill="none" xmlns="http://www.w3.org/2000/svg">
<path d="M2.33325 5.33334H4.36325C5.62325 5.33334 6.61492 6.41834 6.50992 7.66668L5.54159 19.2867C5.50378 19.7368 5.55989 20.19 5.70636 20.6173C5.85283 21.0447 6.08647 21.4369 6.39248 21.7693C6.69849 22.1016 7.07019 22.3667 7.48403 22.5479C7.89787 22.7291 8.34483 22.8223 8.79659 22.8217H21.2216C22.9016 22.8217 24.3716 21.445 24.4999 19.7767L25.1299 11.0267C25.2699 9.09001 23.7999 7.51501 21.8516 7.51501H6.78992M10.4999 12.3333H24.4999M18.9583 28.6667C19.345 28.6667 19.716 28.513 19.9894 28.2395C20.2629 27.9661 20.4166 27.5951 20.4166 27.2083C20.4166 26.8216 20.2629 26.4506 19.9894 26.1771C19.716 25.9037 19.345 25.75 18.9583 25.75C18.5715 25.75 18.2005 25.9037 17.9271 26.1771C17.6536 26.4506 17.4999 26.8216 17.4999 27.2083C17.4999 27.5951 17.6536 27.9661 17.9271 28.2395C18.2005 28.513 18.5715 28.6667 18.9583 28.6667ZM9.62492 28.6667C10.0117 28.6667 10.3826 28.513 10.6561 28.2395C10.9296 27.9661 11.0833 27.5951 11.0833 27.2083C11.0833 26.8216 10.9296 26.4506 10.6561 26.1771C10.3826 25.9037 10.0117 25.75 9.62492 25.75C9.23814 25.75 8.86721 25.9037 8.59372 26.1771C8.32023 26.4506 8.16659 26.8216 8.16659 27.2083C8.16659 27.5951 8.32023 27.9661 8.59372 28.2395C8.86721 28.513 9.23814 28.6667 9.62492 28.6667Z" stroke="black" stroke-width="1.5" stroke-miterlimit="10" stroke-linecap="round" stroke-linejoin="round"/>
<rect x="19.5" y="0.5" width="13" height="13" rx="6.5" fill="#E71919"/>
<path d="M27.0028 4.18182V10H25.7727V5.34943H25.7386L24.4062 6.18466V5.09375L25.8466 4.18182H27.0028Z" fill="white"/>
<rect x="19.5" y="0.5" width="13" height="13" rx="6.5" stroke="white"/>
</svg>
